<mxfile host="65bd71144e">
    <diagram id="R6byxIJEEiHa8vWVsnfQ" name="Page-1">
        <mxGraphModel dx="2220" dy="2876" grid="1" gridSize="10" guides="1" tooltips="1" connect="1" arrows="1" fold="1" page="1" pageScale="1" pageWidth="827" pageHeight="1169" math="0" shadow="0">
            <root>
                <mxCell id="0"/>
                <mxCell id="1" parent="0"/>
                <mxCell id="2" value="" style="shape=image;verticalLabelPosition=bottom;labelBackgroundColor=default;verticalAlign=top;aspect=fixed;imageAspect=0;image=https://pakaccountants.com/wp-content/uploads/2015/06/simple-elegant-cv-template.jpg;" parent="1" vertex="1">
                    <mxGeometry x="33.459999999999994" y="90" width="773.08" height="1000" as="geometry"/>
                </mxCell>
                <mxCell id="3" value="" style="rounded=1;whiteSpace=wrap;html=1;fillColor=#f5f5f5;fontColor=#333333;strokeColor=#666666;" parent="1" vertex="1">
                    <mxGeometry x="40" y="-1160" width="760" height="1140" as="geometry"/>
                </mxCell>
                <mxCell id="4" value="&lt;h1&gt;&lt;font style=&quot;font-size: 50px;&quot;&gt;Job Seeker&lt;/font&gt;&lt;/h1&gt;" style="text;html=1;align=center;verticalAlign=middle;whiteSpace=wrap;rounded=0;flipH=1;labelBackgroundColor=none;fontColor=#0a0a0a;" parent="1" vertex="1">
                    <mxGeometry x="284.5" y="-1147" width="271" height="80" as="geometry"/>
                </mxCell>
                <mxCell id="5" value="" style="endArrow=none;html=1;fontSize=50;entryX=0.961;entryY=0.218;entryDx=0;entryDy=0;entryPerimeter=0;exitX=0.039;exitY=0.218;exitDx=0;exitDy=0;exitPerimeter=0;labelBackgroundColor=none;fontColor=#0a0a0a;strokeWidth=5;strokeColor=#0e0c0c;" parent="1" edge="1">
                    <mxGeometry width="50" height="50" relative="1" as="geometry">
                        <mxPoint x="69.63999999999987" y="-1072.4799999999998" as="sourcePoint"/>
                        <mxPoint x="770.3600000000001" y="-1072.4799999999998" as="targetPoint"/>
                    </mxGeometry>
                </mxCell>
                <mxCell id="6" value="" style="endArrow=none;html=1;strokeWidth=5;fontSize=50;labelBackgroundColor=none;fontColor=#0a0a0a;strokeColor=#0e0c0c;" parent="1" edge="1">
                    <mxGeometry width="50" height="50" relative="1" as="geometry">
                        <mxPoint x="413" y="-1047" as="sourcePoint"/>
                        <mxPoint x="413" y="-100" as="targetPoint"/>
                    </mxGeometry>
                </mxCell>
                <mxCell id="7" value="&lt;h1 style=&quot;font-size: 30px;&quot;&gt;&lt;font color=&quot;#161212&quot; style=&quot;background-color: rgb(245, 239, 239); font-size: 30px;&quot;&gt;Contact&lt;/font&gt;&lt;/h1&gt;&lt;div style=&quot;font-size: 30px;&quot;&gt;&lt;font color=&quot;#161212&quot; style=&quot;background-color: rgb(245, 239, 239); font-size: 30px;&quot;&gt;0123-456789&lt;/font&gt;&lt;/div&gt;&lt;div style=&quot;font-size: 30px;&quot;&gt;&lt;font color=&quot;#161212&quot; style=&quot;background-color: rgb(245, 239, 239); font-size: 30px;&quot;&gt;mail@gmail.com&lt;/font&gt;&lt;/div&gt;&lt;div style=&quot;font-size: 30px;&quot;&gt;&lt;font color=&quot;#161212&quot; style=&quot;background-color: rgb(245, 239, 239); font-size: 30px;&quot;&gt;facebook.com&lt;/font&gt;&lt;/div&gt;&lt;div style=&quot;font-size: 30px;&quot;&gt;&lt;br&gt;&lt;/div&gt;" style="text;html=1;spacing=5;spacingTop=-20;whiteSpace=wrap;overflow=hidden;rounded=0;labelBackgroundColor=none;fontSize=50;align=right;fillColor=#f5f5f5;fontColor=#e9e2e2;strokeColor=#666666;" parent="1" vertex="1">
                    <mxGeometry x="140" y="-1050" width="240" height="190" as="geometry"/>
                </mxCell>
            </root>
        </mxGraphModel>
    </diagram>
</mxfile>